<?xml version="1.0" encoding="UTF-8"?>
<svg width="296px" height="95px" viewBox="0 0 296 95" version="1.1" xmlns="http://www.w3.org/2000/svg" xmlns:xlink="http://www.w3.org/1999/xlink">
    <!-- Generator: Sketch 41 (35326) - http://www.bohemiancoding.com/sketch -->
    <title>Page 1</title>
    <desc>Created with Sketch.</desc>
    <defs>
        <polygon id="path-1" points="295.013243 94.4934301 4.54747351e-13 94.4934301 4.54747351e-13 47.2467151 4.54747351e-13 0 295.013243 0"></polygon>
    </defs>
    <g id="Page-1" stroke="none" stroke-width="1" fill="none" fill-rule="evenodd">
        <g id="Desktop" transform="translate(-364.000000, -144.000000)">
            <g id="Page-1" transform="translate(364.000000, 144.000000)">
                <mask id="mask-2" fill="white">
                    <use xlink:href="#path-1"></use>
                </mask>
                <g id="Clip-2"></g>
                <path d="M6.28761534,88.4203428 L14.6828785,88.4203428 L14.6828785,75.5594161 L6.28761534,75.5594161 L6.28761534,88.4203428 Z M16.8263662,69.4860728 C17.3980142,69.4860728 17.9394541,69.5992247 18.4519661,69.8255287 C18.96371,70.0520887 19.404286,70.3495607 19.7736939,70.7184566 C20.1428459,71.0881206 20.4403179,71.5284405 20.6668778,72.0401845 C20.8929258,72.5526964 21.0063338,73.0941364 21.0063338,73.6657843 L21.0063338,90.3134626 C21.0063338,90.8853665 20.8929258,91.4273185 20.6668778,91.9390624 C20.4403179,92.4515744 20.1428459,92.8980383 19.7736939,93.2787103 C19.404286,93.6598942 18.96371,93.9576222 18.4519661,94.1718942 C17.9394541,94.3861662 17.3980142,94.4934301 16.8263662,94.4934301 L0.678911929,94.4934301 C0.226047976,94.4934301 4.54747351e-13,94.2671262 4.54747351e-13,93.8147742 L4.54747351e-13,70.1647287 C4.54747351e-13,69.7126327 0.226047976,69.4860728 0.678911929,69.4860728 L16.8263662,69.4860728 Z" id="Fill-1" fill="#5AB1D6" mask="url(#mask-2)"></path>
                <path d="M32.2236894,75.4877361 L32.2236894,79.3817517 C32.2236894,79.4772397 32.2828254,79.5248557 32.4023774,79.5248557 L42.5840084,79.5248557 C42.7742163,79.5248557 42.9349843,79.5903917 43.0663123,79.7212077 C43.1968723,79.8522797 43.2626643,80.0133037 43.2626643,80.2035116 L43.2626643,83.7759913 C43.2626643,84.2288552 43.0361043,84.4546472 42.5840084,84.4546472 L32.4023774,84.4546472 C32.2828254,84.4546472 32.2236894,84.5145512 32.2236894,84.6333352 L32.2236894,88.4917668 C32.2236894,88.6110628 32.2828254,88.6701988 32.4023774,88.6701988 L44.3701202,88.6701988 C44.5605842,88.6701988 44.7213521,88.7362467 44.8524241,88.8668067 C44.9829841,88.9978787 45.0490321,89.1586467 45.0490321,89.3491107 L45.0490321,93.8147742 C45.0490321,94.0054942 44.9829841,94.1662622 44.8524241,94.2970782 C44.7213521,94.4281502 44.5605842,94.4934301 44.3701202,94.4934301 L30.1157857,94.4934301 C29.5443937,94.4934301 29.0024418,94.3861662 28.4904418,94.1718942 C27.9779299,93.9573662 27.5314659,93.6598942 27.150794,93.2787103 C26.76961,92.8980383 26.471882,92.4515744 26.2576101,91.9390624 C26.0433381,91.4273185 25.9360741,90.8851105 25.9360741,90.3134626 L25.9360741,73.6657843 C25.9360741,73.0941364 26.0433381,72.5526964 26.2576101,72.0401845 C26.471882,71.5284405 26.76961,71.0878646 27.150794,70.7184566 C27.5314659,70.3495607 27.9779299,70.0520887 28.4904418,69.8255287 C29.0024418,69.5992247 29.5443937,69.4860728 30.1157857,69.4860728 L44.3701202,69.4860728 C44.5605842,69.4860728 44.7213521,69.5518647 44.8524241,69.6824247 C44.9829841,69.8137527 45.0490321,69.9745207 45.0490321,70.1647287 L45.0490321,74.6659762 C45.0490321,74.8569522 44.9829841,75.0118322 44.8524241,75.1303602 C44.7213521,75.2499122 44.5605842,75.3093041 44.3701202,75.3093041 L32.4023774,75.3093041 C32.2828254,75.3093041 32.2236894,75.3689521 32.2236894,75.4877361" id="Fill-3" fill="#5AB1D6" mask="url(#mask-2)"></path>
                <path d="M55.8376902,89.0275747 L65.4476732,89.0275747 L65.4476732,84.1333672 L55.8376902,84.1333672 L55.8376902,89.0275747 Z M55.8376902,79.3817517 L65.4476732,79.3817517 L65.4476732,74.9163442 L55.8376902,74.9163442 L55.8376902,79.3817517 Z M69.1988408,81.4538155 C69.0792888,81.5966635 69.0257848,81.7753515 69.0380728,81.9898794 C69.0498488,82.2038954 69.1151288,82.3710634 69.2344248,82.4898474 L70.7348406,84.2759592 C70.8538806,84.4190632 70.9550006,84.6036392 71.0387126,84.8296872 C71.1216566,85.0565031 71.1636406,85.2646311 71.1636406,85.4550951 L71.1636406,90.3134626 C71.1636406,90.8853665 71.0502326,91.4273185 70.8241846,91.9390624 C70.5976246,92.4515744 70.3001527,92.8980383 69.9310007,93.2787103 C69.5615927,93.6598942 69.1212728,93.9576222 68.6092728,94.1718942 C68.0967609,94.3861662 67.555321,94.4934301 66.983929,94.4934301 L50.8362187,94.4934301 C50.3833547,94.4934301 50.1573068,94.2671262 50.1573068,93.8147742 L50.1573068,70.1647287 C50.1573068,69.7126327 50.3833547,69.4860728 50.8362187,69.4860728 L66.983929,69.4860728 C67.555321,69.4860728 68.0967609,69.5992247 68.6092728,69.8255287 C69.1212728,70.0520887 69.5615927,70.3495607 69.9310007,70.7184566 C70.3001527,71.0881206 70.5976246,71.5284405 70.8241846,72.0401845 C71.0502326,72.5526964 71.1636406,73.0941364 71.1636406,73.6657843 L71.1636406,78.3098798 C71.1636406,78.5011118 71.1216566,78.7092398 71.0387126,78.9352878 C70.9550006,79.1618477 70.8538806,79.3459117 70.7348406,79.4890157 L69.1988408,81.4538155 Z" id="Fill-4" fill="#5AB1D6" mask="url(#mask-2)"></path>
                <path d="M96.9033115,69.6825015 C97.0338715,69.8138295 97.0999195,69.9745975 97.0999195,70.1648055 L97.0999195,90.3135394 C97.0999195,90.8851873 96.9865115,91.4271393 96.7604635,91.9388832 C96.5339035,92.4513952 96.2361756,92.8981151 95.8672796,93.2787871 C95.4978716,93.659971 95.0572957,93.957443 94.5455517,94.171971 C94.0330398,94.386243 93.4915998,94.4935069 92.9199519,94.4935069 L80.2732972,94.4935069 C79.7019053,94.4935069 79.1596973,94.386243 78.6479534,94.171971 C78.1354414,93.957443 77.6889775,93.659971 77.3083055,93.2787871 C76.9268656,92.8981151 76.6293936,92.4513952 76.4151216,91.9388832 C76.2005937,91.4271393 76.0935857,90.8851873 76.0935857,90.3135394 L76.0935857,70.1648055 C76.0935857,69.7127095 76.3196336,69.4858936 76.7722416,69.4858936 L81.7022891,69.4858936 C82.154385,69.4858936 82.381201,69.7127095 82.381201,70.1648055 L82.381201,87.7773476 C82.381201,87.9680676 82.446481,88.1226916 82.577553,88.2414756 C82.708369,88.3610276 82.868881,88.4201636 83.0598569,88.4201636 L90.1333922,88.4201636 C90.3238562,88.4201636 90.4784802,88.3610276 90.5977761,88.2414756 C90.7168161,88.1226916 90.7764641,87.9680676 90.7764641,87.7773476 L90.7764641,70.1648055 C90.7764641,69.9745975 90.8417441,69.8138295 90.9730721,69.6825015 C91.1036321,69.5516855 91.2644001,69.4858936 91.4553761,69.4858936 L96.4210075,69.4858936 C96.6114715,69.4858936 96.7722395,69.5516855 96.9033115,69.6825015" id="Fill-5" fill="#5AB1D6" mask="url(#mask-2)"></path>
                <path d="M122.910912,81.0430123 C123.041472,81.1743403 123.107264,81.3351083 123.107264,81.5253163 L123.107264,90.3135394 C123.107264,90.8851873 122.994112,91.4271393 122.768064,91.9391392 C122.541504,92.4513952 122.243776,92.8981151 121.87488,93.2787871 C121.505472,93.659971 121.064896,93.957443 120.553152,94.171971 C120.04064,94.386243 119.4992,94.4935069 118.927552,94.4935069 L106.280898,94.4935069 C105.70925,94.4935069 105.167298,94.386243 104.655554,94.171971 C104.143042,93.957443 103.696578,93.659971 103.315906,93.2787871 C102.934466,92.8981151 102.636994,92.4513952 102.422722,91.9391392 C102.208194,91.4271393 102.101186,90.8851873 102.101186,90.3135394 L102.101186,73.6658611 C102.101186,73.0942132 102.208194,72.5527732 102.422722,72.0402613 C102.636994,71.5285173 102.934466,71.0879414 103.315906,70.7185334 C103.696578,70.3496375 104.143042,70.0519095 104.655554,69.8256055 C105.167298,69.5993015 105.70925,69.4858936 106.280898,69.4858936 L121.035456,69.4858936 C121.225664,69.4858936 121.386432,69.5516855 121.517504,69.6825015 C121.64832,69.8138295 121.714112,69.9745975 121.714112,70.1648055 L121.714112,74.880581 C121.714112,75.071301 121.64832,75.232325 121.517504,75.3628849 C121.386432,75.4939569 121.225664,75.5592369 121.035456,75.5592369 L109.067457,75.5592369 C108.876481,75.5592369 108.715969,75.6188849 108.585153,75.7376689 C108.454081,75.8572209 108.388801,76.0121009 108.388801,76.2023089 L108.388801,87.7773476 C108.388801,87.9680676 108.454081,88.1226916 108.585153,88.2414756 C108.715969,88.3610276 108.876481,88.4201636 109.067457,88.4201636 L116.140993,88.4201636 C116.331457,88.4201636 116.486081,88.3610276 116.605377,88.2414756 C116.724417,88.1226916 116.784065,87.9680676 116.784065,87.7773476 L116.784065,81.5253163 C116.784065,81.3351083 116.849345,81.1743403 116.980673,81.0430123 C117.111233,80.9124524 117.272001,80.8464044 117.462977,80.8464044 L122.428608,80.8464044 C122.619072,80.8464044 122.77984,80.9124524 122.910912,81.0430123" id="Fill-6" fill="#5AB1D6" mask="url(#mask-2)"></path>
                <path d="M145.578225,81.4893995 L152.544496,81.4893995 L152.544496,75.1662002 L145.578225,75.1662002 L145.578225,81.4893995 Z M154.437872,69.4860728 C155.00952,69.4860728 155.55096,69.5992247 156.063472,69.8255287 C156.575216,70.0520887 157.015792,70.3495607 157.3852,70.7184566 C157.754352,71.0881206 158.051824,71.5284405 158.278383,72.0401845 C158.504431,72.5526964 158.617839,73.0941364 158.617839,73.6657843 L158.617839,83.1329193 C158.617839,83.7045673 158.504431,84.2465192 158.278383,84.7585192 C158.051824,85.2707751 157.754352,85.7113511 157.3852,86.080247 C157.015792,86.449655 156.575216,86.747127 156.063472,86.9731749 C155.55096,87.1999909 155.00952,87.3126309 154.437872,87.3126309 L146.471409,87.3126309 C146.280433,87.3126309 146.119665,87.3725349 145.989105,87.4913189 C145.857777,87.6108709 145.792497,87.7654948 145.792497,87.9557028 L145.792497,93.8147742 C145.792497,94.2671262 145.565937,94.4934301 145.113841,94.4934301 L140.183793,94.4934301 C139.730929,94.4934301 139.504881,94.2671262 139.504881,93.8147742 L139.504881,70.1647287 C139.504881,69.7126327 139.730929,69.4860728 140.183793,69.4860728 L154.437872,69.4860728 Z" id="Fill-7" fill="#5AB1D6" mask="url(#mask-2)"></path>
                <path d="M168.405998,88.4200868 L176.801262,88.4200868 L176.801262,75.5591601 L168.405998,75.5591601 L168.405998,88.4200868 Z M178.944749,69.4860728 C179.516397,69.4860728 180.057837,69.5992247 180.570093,69.8255287 C181.082093,70.0520887 181.522413,70.3495607 181.892077,70.7184566 C182.260973,71.0881206 182.558445,71.5284405 182.785261,72.0401845 C183.011309,72.5526964 183.124717,73.0941364 183.124717,73.6657843 L183.124717,90.3134626 C183.124717,90.8853665 183.011309,91.4273185 182.785261,91.9390624 C182.558445,92.4515744 182.260973,92.8980383 181.892077,93.2787103 C181.522413,93.6598942 181.082093,93.9576222 180.570093,94.1718942 C180.057837,94.3861662 179.516397,94.4934301 178.944749,94.4934301 L166.298095,94.4934301 C165.726447,94.4934301 165.184495,94.3861662 164.672751,94.1718942 C164.160239,93.9576222 163.713775,93.6598942 163.332847,93.2787103 C162.951663,92.8980383 162.654191,92.4515744 162.439919,91.9390624 C162.225391,91.4273185 162.118383,90.8853665 162.118383,90.3134626 L162.118383,73.6657843 C162.118383,73.0941364 162.225391,72.5526964 162.439919,72.0401845 C162.654191,71.5284405 162.951663,71.0881206 163.332847,70.7184566 C163.713775,70.3495607 164.160239,70.0520887 164.672751,69.8255287 C165.184495,69.5992247 165.726447,69.4860728 166.298095,69.4860728 L178.944749,69.4860728 Z" id="Fill-8" fill="#5AB1D6" mask="url(#mask-2)"></path>
                <path d="M204.273515,88.4202404 C204.463723,88.4202404 204.618347,88.4860324 204.737899,88.6168484 C204.856939,88.7476643 204.916587,88.9086883 204.916587,89.0988963 L204.916587,93.8146718 C204.916587,94.0053918 204.856939,94.1661598 204.737899,94.2969758 C204.618347,94.4283038 204.463723,94.4935837 204.273515,94.4935837 L188.8403,94.4935837 C188.387692,94.4935837 188.161644,94.2672798 188.161644,93.8146718 L188.161644,70.1646263 C188.161644,69.7127863 188.387692,69.4859704 188.8403,69.4859704 L193.770348,69.4859704 C194.222444,69.4859704 194.44926,69.7127863 194.44926,70.1646263 L194.44926,87.7771684 C194.44926,87.9678884 194.51454,88.1227684 194.645612,88.2415524 C194.776172,88.3611044 194.93694,88.4202404 195.127916,88.4202404 L204.273515,88.4202404 Z" id="Fill-9" fill="#5AB1D6" mask="url(#mask-2)"></path>
                <path d="M214.133098,93.8147486 C214.133098,94.2673566 213.906538,94.4934045 213.454442,94.4934045 L208.524394,94.4934045 C208.07153,94.4934045 207.845482,94.2673566 207.845482,93.8147486 L207.845482,70.1647031 C207.845482,69.7128631 208.07153,69.4860472 208.524394,69.4860472 L213.454442,69.4860472 C213.906538,69.4860472 214.133098,69.7128631 214.133098,70.1647031 L214.133098,93.8147486 Z" id="Fill-10" fill="#5AB1D6" mask="url(#mask-2)"></path>
                <path d="M236.853838,74.8805042 C236.853838,75.0712242 236.788046,75.2322482 236.65723,75.3628081 C236.526158,75.4938801 236.36539,75.5591601 236.175182,75.5591601 L231.10203,75.5591601 C230.91131,75.5591601 230.750542,75.6190641 230.619726,75.7378481 C230.488654,75.8571441 230.423374,76.0120241 230.423374,76.2022321 L230.423374,93.8147742 C230.423374,94.0054942 230.363726,94.1662622 230.244686,94.2970782 C230.12539,94.4281502 229.970766,94.4934301 229.780302,94.4934301 L224.814415,94.4934301 C224.623695,94.4934301 224.462927,94.4281502 224.332367,94.2970782 C224.201039,94.1662622 224.135759,94.0054942 224.135759,93.8147742 L224.135759,76.2022321 C224.135759,76.0120241 224.076111,75.8571441 223.957071,75.7378481 C223.837775,75.6190641 223.683151,75.5591601 223.492687,75.5591601 L218.419792,75.5591601 C218.228816,75.5591601 218.068048,75.4938801 217.937488,75.3628081 C217.806416,75.2322482 217.741136,75.0712242 217.741136,74.8805042 L217.741136,70.1647287 C217.741136,69.7126327 217.967184,69.4860728 218.419792,69.4860728 L236.175182,69.4860728 C236.36539,69.4860728 236.526158,69.5518647 236.65723,69.6824247 C236.788046,69.8137527 236.853838,69.9745207 236.853838,70.1647287 L236.853838,74.8805042 Z" id="Fill-11" fill="#5AB1D6" mask="url(#mask-2)"></path>
                <path d="M246.856448,93.8147486 C246.856448,94.2673566 246.629888,94.4934045 246.177792,94.4934045 L241.247744,94.4934045 C240.79488,94.4934045 240.568833,94.2673566 240.568833,93.8147486 L240.568833,70.1647031 C240.568833,69.7128631 240.79488,69.4860472 241.247744,69.4860472 L246.177792,69.4860472 C246.629888,69.4860472 246.856448,69.7128631 246.856448,70.1647031 L246.856448,93.8147486 Z" id="Fill-12" fill="#5AB1D6" mask="url(#mask-2)"></path>
                <path d="M258.270335,75.7377457 C258.139263,75.8572977 258.073727,76.0119217 258.073727,76.2021297 L258.073727,87.7771684 C258.073727,87.9678884 258.139263,88.1227684 258.270335,88.2415524 C258.400895,88.3611044 258.561663,88.4202404 258.752639,88.4202404 L270.220413,88.4202404 C270.410621,88.4202404 270.571389,88.4860324 270.702717,88.6168484 C270.833277,88.7476643 270.899069,88.9086883 270.899069,89.0988963 L270.899069,93.8146718 C270.899069,94.0053918 270.833277,94.1661598 270.702717,94.2969758 C270.571389,94.4283038 270.410621,94.4935837 270.220413,94.4935837 L262.753918,94.4935837 L256.609151,94.4935837 L255.966079,94.4935837 C255.394431,94.4935837 254.852479,94.3863198 254.340479,94.1720478 C253.828223,93.9575198 253.381759,93.6600478 253.000831,93.2788639 C252.619647,92.8979359 252.322175,92.451472 252.107647,91.93896 C251.893375,91.4272161 251.786367,90.8852641 251.786367,90.3136162 L251.786367,89.6705442 L251.786367,87.0626725 L251.786367,78.7388334 L251.786367,76.4166576 L251.786367,73.6656819 C251.786367,73.09429 251.893375,72.55285 252.107647,72.0403381 C252.322175,71.5285941 252.619647,71.0880182 253.000831,70.7186102 C253.381759,70.3494583 253.828223,70.0519863 254.340479,69.8254263 C254.852479,69.5991223 255.394431,69.4859704 255.966079,69.4859704 L256.609151,69.4859704 L270.220413,69.4859704 C270.410621,69.4859704 270.571389,69.5517623 270.702717,69.6825783 C270.833277,69.8136503 270.899069,69.9744183 270.899069,70.1646263 L270.899069,74.8804018 C270.899069,75.0711218 270.833277,75.2321458 270.702717,75.3627057 C270.571389,75.4940337 270.410621,75.5593137 270.220413,75.5593137 L258.752639,75.5593137 C258.561663,75.5593137 258.400895,75.6189617 258.270335,75.7377457" id="Fill-13" fill="#5AB1D6" mask="url(#mask-2)"></path>
                <path d="M292.458875,79.7747629 C292.970875,79.9890349 293.411195,80.2872748 293.780603,80.6679468 C294.149755,81.0493867 294.447227,81.4894507 294.673787,81.9896746 C294.899835,82.4896426 295.013243,83.0257065 295.013243,83.5973545 L295.013243,90.3135138 C295.013243,90.8851617 294.899835,91.4273697 294.673787,91.9391136 C294.447227,92.4516256 294.149755,92.8980895 293.780603,93.2787615 C293.411195,93.6599454 292.970875,93.9574174 292.458875,94.1719454 C291.946363,94.3862174 291.404923,94.4934813 290.833275,94.4934813 L276.579197,94.4934813 C276.126333,94.4934813 275.900285,94.2671774 275.900285,93.8148254 L275.900285,89.4920099 C275.900285,89.3015459 275.965565,89.1407779 276.096893,89.0097059 C276.227453,88.8788899 276.388221,88.8133539 276.579197,88.8133539 L288.725627,88.8133539 C288.916091,88.8133539 289.076859,88.7539619 289.207931,88.63441 C289.338491,88.515882 289.404283,88.361002 289.404283,88.170282 L289.404283,85.2050343 C289.404283,85.0145703 289.338491,84.8538023 289.207931,84.7227304 C289.076859,84.5919144 288.916091,84.5263784 288.725627,84.5263784 L280.080252,84.5263784 C279.508604,84.5263784 278.966653,84.4191144 278.454653,84.2048424 C277.942397,83.9903144 277.495677,83.6928425 277.115005,83.3114025 C276.733821,82.9307305 276.436349,82.4896426 276.221821,81.9896746 C276.007549,81.4894507 275.900285,80.9536428 275.900285,80.3819948 L275.900285,73.6658355 C275.900285,73.0941876 276.007549,72.5527476 276.221821,72.0402357 C276.436349,71.5284917 276.733821,71.0879158 277.115005,70.7185078 C277.495677,70.3496119 277.942397,70.0518839 278.454653,69.8255799 C278.966653,69.5992759 279.508604,69.486124 280.080252,69.486124 L293.548411,69.486124 C294.000507,69.486124 294.227323,69.7126839 294.227323,70.1647799 L294.227323,74.5590194 C294.227323,74.7497394 294.161275,74.9046194 294.030715,75.0231474 C293.899643,75.1426994 293.738875,75.2020914 293.548411,75.2020914 L282.152316,75.2020914 C281.96134,75.2020914 281.806716,75.2678833 281.687932,75.3984433 C281.56838,75.5297713 281.509244,75.6905393 281.509244,75.8807473 L281.509244,78.774571 C281.509244,78.965547 281.56838,79.1263149 281.687932,79.2568749 C281.806716,79.3879469 281.96134,79.4532269 282.152316,79.4532269 L290.833275,79.4532269 C291.404923,79.4532269 291.946363,79.5604909 292.458875,79.7747629" id="Fill-14" fill="#5AB1D6" mask="url(#mask-2)"></path>
                <path d="M6.28761534,88.4203428 L14.6828785,88.4203428 L14.6828785,75.5594161 L6.28761534,75.5594161 L6.28761534,88.4203428 Z M16.8263662,69.4860728 C17.3980142,69.4860728 17.9394541,69.5992247 18.4519661,69.8255287 C18.96371,70.0520887 19.404286,70.3495607 19.7736939,70.7184566 C20.1428459,71.0881206 20.4403179,71.5284405 20.6668778,72.0401845 C20.8929258,72.5526964 21.0063338,73.0941364 21.0063338,73.6657843 L21.0063338,90.3134626 C21.0063338,90.8853665 20.8929258,91.4273185 20.6668778,91.9390624 C20.4403179,92.4515744 20.1428459,92.8980383 19.7736939,93.2787103 C19.404286,93.6598942 18.96371,93.9576222 18.4519661,94.1718942 C17.9394541,94.3861662 17.3980142,94.4934301 16.8263662,94.4934301 L0.678911929,94.4934301 C0.226047976,94.4934301 4.54747351e-13,94.2671262 4.54747351e-13,93.8147742 L4.54747351e-13,70.1647287 C4.54747351e-13,69.7126327 0.226047976,69.4860728 0.678911929,69.4860728 L16.8263662,69.4860728 Z" id="Fill-15" fill="#004E87" mask="url(#mask-2)"></path>
                <path d="M32.2236894,75.4877361 L32.2236894,79.3817517 C32.2236894,79.4772397 32.2828254,79.5248557 32.4023774,79.5248557 L42.5840084,79.5248557 C42.7742163,79.5248557 42.9349843,79.5903917 43.0663123,79.7212077 C43.1968723,79.8522797 43.2626643,80.0133037 43.2626643,80.2035116 L43.2626643,83.7759913 C43.2626643,84.2288552 43.0361043,84.4546472 42.5840084,84.4546472 L32.4023774,84.4546472 C32.2828254,84.4546472 32.2236894,84.5145512 32.2236894,84.6333352 L32.2236894,88.4917668 C32.2236894,88.6110628 32.2828254,88.6701988 32.4023774,88.6701988 L44.3701202,88.6701988 C44.5605842,88.6701988 44.7213521,88.7362467 44.8524241,88.8668067 C44.9829841,88.9978787 45.0490321,89.1586467 45.0490321,89.3491107 L45.0490321,93.8147742 C45.0490321,94.0054942 44.9829841,94.1662622 44.8524241,94.2970782 C44.7213521,94.4281502 44.5605842,94.4934301 44.3701202,94.4934301 L30.1157857,94.4934301 C29.5443937,94.4934301 29.0024418,94.3861662 28.4904418,94.1718942 C27.9779299,93.9573662 27.5314659,93.6598942 27.150794,93.2787103 C26.76961,92.8980383 26.471882,92.4515744 26.2576101,91.9390624 C26.0433381,91.4273185 25.9360741,90.8851105 25.9360741,90.3134626 L25.9360741,73.6657843 C25.9360741,73.0941364 26.0433381,72.5526964 26.2576101,72.0401845 C26.471882,71.5284405 26.76961,71.0878646 27.150794,70.7184566 C27.5314659,70.3495607 27.9779299,70.0520887 28.4904418,69.8255287 C29.0024418,69.5992247 29.5443937,69.4860728 30.1157857,69.4860728 L44.3701202,69.4860728 C44.5605842,69.4860728 44.7213521,69.5518647 44.8524241,69.6824247 C44.9829841,69.8137527 45.0490321,69.9745207 45.0490321,70.1647287 L45.0490321,74.6659762 C45.0490321,74.8569522 44.9829841,75.0118322 44.8524241,75.1303602 C44.7213521,75.2499122 44.5605842,75.3093041 44.3701202,75.3093041 L32.4023774,75.3093041 C32.2828254,75.3093041 32.2236894,75.3689521 32.2236894,75.4877361" id="Fill-16" fill="#004E87" mask="url(#mask-2)"></path>
                <path d="M55.8376902,89.0275747 L65.4476732,89.0275747 L65.4476732,84.1333672 L55.8376902,84.1333672 L55.8376902,89.0275747 Z M55.8376902,79.3817517 L65.4476732,79.3817517 L65.4476732,74.9163442 L55.8376902,74.9163442 L55.8376902,79.3817517 Z M69.1988408,81.4538155 C69.0792888,81.5966635 69.0257848,81.7753515 69.0380728,81.9898794 C69.0498488,82.2038954 69.1151288,82.3710634 69.2344248,82.4898474 L70.7348406,84.2759592 C70.8538806,84.4190632 70.9550006,84.6036392 71.0387126,84.8296872 C71.1216566,85.0565031 71.1636406,85.2646311 71.1636406,85.4550951 L71.1636406,90.3134626 C71.1636406,90.8853665 71.0502326,91.4273185 70.8241846,91.9390624 C70.5976246,92.4515744 70.3001527,92.8980383 69.9310007,93.2787103 C69.5615927,93.6598942 69.1212728,93.9576222 68.6092728,94.1718942 C68.0967609,94.3861662 67.555321,94.4934301 66.983929,94.4934301 L50.8362187,94.4934301 C50.3833547,94.4934301 50.1573068,94.2671262 50.1573068,93.8147742 L50.1573068,70.1647287 C50.1573068,69.7126327 50.3833547,69.4860728 50.8362187,69.4860728 L66.983929,69.4860728 C67.555321,69.4860728 68.0967609,69.5992247 68.6092728,69.8255287 C69.1212728,70.0520887 69.5615927,70.3495607 69.9310007,70.7184566 C70.3001527,71.0881206 70.5976246,71.5284405 70.8241846,72.0401845 C71.0502326,72.5526964 71.1636406,73.0941364 71.1636406,73.6657843 L71.1636406,78.3098798 C71.1636406,78.5011118 71.1216566,78.7092398 71.0387126,78.9352878 C70.9550006,79.1618477 70.8538806,79.3459117 70.7348406,79.4890157 L69.1988408,81.4538155 Z" id="Fill-17" fill="#004E87" mask="url(#mask-2)"></path>
                <path d="M96.9033115,69.6825015 C97.0338715,69.8138295 97.0999195,69.9745975 97.0999195,70.1648055 L97.0999195,90.3135394 C97.0999195,90.8851873 96.9865115,91.4271393 96.7604635,91.9388832 C96.5339035,92.4513952 96.2361756,92.8981151 95.8672796,93.2787871 C95.4978716,93.659971 95.0572957,93.957443 94.5455517,94.171971 C94.0330398,94.386243 93.4915998,94.4935069 92.9199519,94.4935069 L80.2732972,94.4935069 C79.7019053,94.4935069 79.1596973,94.386243 78.6479534,94.171971 C78.1354414,93.957443 77.6889775,93.659971 77.3083055,93.2787871 C76.9268656,92.8981151 76.6293936,92.4513952 76.4151216,91.9388832 C76.2005937,91.4271393 76.0935857,90.8851873 76.0935857,90.3135394 L76.0935857,70.1648055 C76.0935857,69.7127095 76.3196336,69.4858936 76.7722416,69.4858936 L81.7022891,69.4858936 C82.154385,69.4858936 82.381201,69.7127095 82.381201,70.1648055 L82.381201,87.7773476 C82.381201,87.9680676 82.446481,88.1226916 82.577553,88.2414756 C82.708369,88.3610276 82.868881,88.4201636 83.0598569,88.4201636 L90.1333922,88.4201636 C90.3238562,88.4201636 90.4784802,88.3610276 90.5977761,88.2414756 C90.7168161,88.1226916 90.7764641,87.9680676 90.7764641,87.7773476 L90.7764641,70.1648055 C90.7764641,69.9745975 90.8417441,69.8138295 90.9730721,69.6825015 C91.1036321,69.5516855 91.2644001,69.4858936 91.4553761,69.4858936 L96.4210075,69.4858936 C96.6114715,69.4858936 96.7722395,69.5516855 96.9033115,69.6825015" id="Fill-18" fill="#004E87" mask="url(#mask-2)"></path>
                <path d="M122.910912,81.0430123 C123.041472,81.1743403 123.107264,81.3351083 123.107264,81.5253163 L123.107264,90.3135394 C123.107264,90.8851873 122.994112,91.4271393 122.768064,91.9391392 C122.541504,92.4513952 122.243776,92.8981151 121.87488,93.2787871 C121.505472,93.659971 121.064896,93.957443 120.553152,94.171971 C120.04064,94.386243 119.4992,94.4935069 118.927552,94.4935069 L106.280898,94.4935069 C105.70925,94.4935069 105.167298,94.386243 104.655554,94.171971 C104.143042,93.957443 103.696578,93.659971 103.315906,93.2787871 C102.934466,92.8981151 102.636994,92.4513952 102.422722,91.9391392 C102.208194,91.4271393 102.101186,90.8851873 102.101186,90.3135394 L102.101186,73.6658611 C102.101186,73.0942132 102.208194,72.5527732 102.422722,72.0402613 C102.636994,71.5285173 102.934466,71.0879414 103.315906,70.7185334 C103.696578,70.3496375 104.143042,70.0519095 104.655554,69.8256055 C105.167298,69.5993015 105.70925,69.4858936 106.280898,69.4858936 L121.035456,69.4858936 C121.225664,69.4858936 121.386432,69.5516855 121.517504,69.6825015 C121.64832,69.8138295 121.714112,69.9745975 121.714112,70.1648055 L121.714112,74.880581 C121.714112,75.071301 121.64832,75.232325 121.517504,75.3628849 C121.386432,75.4939569 121.225664,75.5592369 121.035456,75.5592369 L109.067457,75.5592369 C108.876481,75.5592369 108.715969,75.6188849 108.585153,75.7376689 C108.454081,75.8572209 108.388801,76.0121009 108.388801,76.2023089 L108.388801,87.7773476 C108.388801,87.9680676 108.454081,88.1226916 108.585153,88.2414756 C108.715969,88.3610276 108.876481,88.4201636 109.067457,88.4201636 L116.140993,88.4201636 C116.331457,88.4201636 116.486081,88.3610276 116.605377,88.2414756 C116.724417,88.1226916 116.784065,87.9680676 116.784065,87.7773476 L116.784065,81.5253163 C116.784065,81.3351083 116.849345,81.1743403 116.980673,81.0430123 C117.111233,80.9124524 117.272001,80.8464044 117.462977,80.8464044 L122.428608,80.8464044 C122.619072,80.8464044 122.77984,80.9124524 122.910912,81.0430123" id="Fill-19" fill="#004E87" mask="url(#mask-2)"></path>
                <path d="M145.578225,81.4893995 L152.544496,81.4893995 L152.544496,75.1662002 L145.578225,75.1662002 L145.578225,81.4893995 Z M154.437872,69.4860728 C155.00952,69.4860728 155.55096,69.5992247 156.063472,69.8255287 C156.575216,70.0520887 157.015792,70.3495607 157.3852,70.7184566 C157.754352,71.0881206 158.051824,71.5284405 158.278383,72.0401845 C158.504431,72.5526964 158.617839,73.0941364 158.617839,73.6657843 L158.617839,83.1329193 C158.617839,83.7045673 158.504431,84.2465192 158.278383,84.7585192 C158.051824,85.2707751 157.754352,85.7113511 157.3852,86.080247 C157.015792,86.449655 156.575216,86.747127 156.063472,86.9731749 C155.55096,87.1999909 155.00952,87.3126309 154.437872,87.3126309 L146.471409,87.3126309 C146.280433,87.3126309 146.119665,87.3725349 145.989105,87.4913189 C145.857777,87.6108709 145.792497,87.7654948 145.792497,87.9557028 L145.792497,93.8147742 C145.792497,94.2671262 145.565937,94.4934301 145.113841,94.4934301 L140.183793,94.4934301 C139.730929,94.4934301 139.504881,94.2671262 139.504881,93.8147742 L139.504881,70.1647287 C139.504881,69.7126327 139.730929,69.4860728 140.183793,69.4860728 L154.437872,69.4860728 Z" id="Fill-20" fill="#004E87" mask="url(#mask-2)"></path>
                <path d="M168.405998,88.4200868 L176.801262,88.4200868 L176.801262,75.5591601 L168.405998,75.5591601 L168.405998,88.4200868 Z M178.944749,69.4860728 C179.516397,69.4860728 180.057837,69.5992247 180.570093,69.8255287 C181.082093,70.0520887 181.522413,70.3495607 181.892077,70.7184566 C182.260973,71.0881206 182.558445,71.5284405 182.785261,72.0401845 C183.011309,72.5526964 183.124717,73.0941364 183.124717,73.6657843 L183.124717,90.3134626 C183.124717,90.8853665 183.011309,91.4273185 182.785261,91.9390624 C182.558445,92.4515744 182.260973,92.8980383 181.892077,93.2787103 C181.522413,93.6598942 181.082093,93.9576222 180.570093,94.1718942 C180.057837,94.3861662 179.516397,94.4934301 178.944749,94.4934301 L166.298095,94.4934301 C165.726447,94.4934301 165.184495,94.3861662 164.672751,94.1718942 C164.160239,93.9576222 163.713775,93.6598942 163.332847,93.2787103 C162.951663,92.8980383 162.654191,92.4515744 162.439919,91.9390624 C162.225391,91.4273185 162.118383,90.8853665 162.118383,90.3134626 L162.118383,73.6657843 C162.118383,73.0941364 162.225391,72.5526964 162.439919,72.0401845 C162.654191,71.5284405 162.951663,71.0881206 163.332847,70.7184566 C163.713775,70.3495607 164.160239,70.0520887 164.672751,69.8255287 C165.184495,69.5992247 165.726447,69.4860728 166.298095,69.4860728 L178.944749,69.4860728 Z" id="Fill-21" fill="#004E87" mask="url(#mask-2)"></path>
                <path d="M204.273515,88.4202404 C204.463723,88.4202404 204.618347,88.4860324 204.737899,88.6168484 C204.856939,88.7476643 204.916587,88.9086883 204.916587,89.0988963 L204.916587,93.8146718 C204.916587,94.0053918 204.856939,94.1661598 204.737899,94.2969758 C204.618347,94.4283038 204.463723,94.4935837 204.273515,94.4935837 L188.8403,94.4935837 C188.387692,94.4935837 188.161644,94.2672798 188.161644,93.8146718 L188.161644,70.1646263 C188.161644,69.7127863 188.387692,69.4859704 188.8403,69.4859704 L193.770348,69.4859704 C194.222444,69.4859704 194.44926,69.7127863 194.44926,70.1646263 L194.44926,87.7771684 C194.44926,87.9678884 194.51454,88.1227684 194.645612,88.2415524 C194.776172,88.3611044 194.93694,88.4202404 195.127916,88.4202404 L204.273515,88.4202404 Z" id="Fill-22" fill="#004E87" mask="url(#mask-2)"></path>
                <path d="M214.133098,93.8147486 C214.133098,94.2673566 213.906538,94.4934045 213.454442,94.4934045 L208.524394,94.4934045 C208.07153,94.4934045 207.845482,94.2673566 207.845482,93.8147486 L207.845482,70.1647031 C207.845482,69.7128631 208.07153,69.4860472 208.524394,69.4860472 L213.454442,69.4860472 C213.906538,69.4860472 214.133098,69.7128631 214.133098,70.1647031 L214.133098,93.8147486 Z" id="Fill-23" fill="#004E87" mask="url(#mask-2)"></path>
                <path d="M236.853838,74.8805042 C236.853838,75.0712242 236.788046,75.2322482 236.65723,75.3628081 C236.526158,75.4938801 236.36539,75.5591601 236.175182,75.5591601 L231.10203,75.5591601 C230.91131,75.5591601 230.750542,75.6190641 230.619726,75.7378481 C230.488654,75.8571441 230.423374,76.0120241 230.423374,76.2022321 L230.423374,93.8147742 C230.423374,94.0054942 230.363726,94.1662622 230.244686,94.2970782 C230.12539,94.4281502 229.970766,94.4934301 229.780302,94.4934301 L224.814415,94.4934301 C224.623695,94.4934301 224.462927,94.4281502 224.332367,94.2970782 C224.201039,94.1662622 224.135759,94.0054942 224.135759,93.8147742 L224.135759,76.2022321 C224.135759,76.0120241 224.076111,75.8571441 223.957071,75.7378481 C223.837775,75.6190641 223.683151,75.5591601 223.492687,75.5591601 L218.419792,75.5591601 C218.228816,75.5591601 218.068048,75.4938801 217.937488,75.3628081 C217.806416,75.2322482 217.741136,75.0712242 217.741136,74.8805042 L217.741136,70.1647287 C217.741136,69.7126327 217.967184,69.4860728 218.419792,69.4860728 L236.175182,69.4860728 C236.36539,69.4860728 236.526158,69.5518647 236.65723,69.6824247 C236.788046,69.8137527 236.853838,69.9745207 236.853838,70.1647287 L236.853838,74.8805042 Z" id="Fill-24" fill="#004E87" mask="url(#mask-2)"></path>
                <path d="M246.856448,93.8147486 C246.856448,94.2673566 246.629888,94.4934045 246.177792,94.4934045 L241.247744,94.4934045 C240.79488,94.4934045 240.568833,94.2673566 240.568833,93.8147486 L240.568833,70.1647031 C240.568833,69.7128631 240.79488,69.4860472 241.247744,69.4860472 L246.177792,69.4860472 C246.629888,69.4860472 246.856448,69.7128631 246.856448,70.1647031 L246.856448,93.8147486 Z" id="Fill-25" fill="#004E87" mask="url(#mask-2)"></path>
                <path d="M258.270335,75.7377457 C258.139263,75.8572977 258.073727,76.0119217 258.073727,76.2021297 L258.073727,87.7771684 C258.073727,87.9678884 258.139263,88.1227684 258.270335,88.2415524 C258.400895,88.3611044 258.561663,88.4202404 258.752639,88.4202404 L270.220413,88.4202404 C270.410621,88.4202404 270.571389,88.4860324 270.702717,88.6168484 C270.833277,88.7476643 270.899069,88.9086883 270.899069,89.0988963 L270.899069,93.8146718 C270.899069,94.0053918 270.833277,94.1661598 270.702717,94.2969758 C270.571389,94.4283038 270.410621,94.4935837 270.220413,94.4935837 L262.753918,94.4935837 L256.609151,94.4935837 L255.966079,94.4935837 C255.394431,94.4935837 254.852479,94.3863198 254.340479,94.1720478 C253.828223,93.9575198 253.381759,93.6600478 253.000831,93.2788639 C252.619647,92.8979359 252.322175,92.451472 252.107647,91.93896 C251.893375,91.4272161 251.786367,90.8852641 251.786367,90.3136162 L251.786367,89.6705442 L251.786367,87.0626725 L251.786367,78.7388334 L251.786367,76.4166576 L251.786367,73.6656819 C251.786367,73.09429 251.893375,72.55285 252.107647,72.0403381 C252.322175,71.5285941 252.619647,71.0880182 253.000831,70.7186102 C253.381759,70.3494583 253.828223,70.0519863 254.340479,69.8254263 C254.852479,69.5991223 255.394431,69.4859704 255.966079,69.4859704 L256.609151,69.4859704 L270.220413,69.4859704 C270.410621,69.4859704 270.571389,69.5517623 270.702717,69.6825783 C270.833277,69.8136503 270.899069,69.9744183 270.899069,70.1646263 L270.899069,74.8804018 C270.899069,75.0711218 270.833277,75.2321458 270.702717,75.3627057 C270.571389,75.4940337 270.410621,75.5593137 270.220413,75.5593137 L258.752639,75.5593137 C258.561663,75.5593137 258.400895,75.6189617 258.270335,75.7377457" id="Fill-26" fill="#004E87" mask="url(#mask-2)"></path>
                <path d="M292.458875,79.7747629 C292.970875,79.9890349 293.411195,80.2872748 293.780603,80.6679468 C294.149755,81.0493867 294.447227,81.4894507 294.673787,81.9896746 C294.899835,82.4896426 295.013243,83.0257065 295.013243,83.5973545 L295.013243,90.3135138 C295.013243,90.8851617 294.899835,91.4273697 294.673787,91.9391136 C294.447227,92.4516256 294.149755,92.8980895 293.780603,93.2787615 C293.411195,93.6599454 292.970875,93.9574174 292.458875,94.1719454 C291.946363,94.3862174 291.404923,94.4934813 290.833275,94.4934813 L276.579197,94.4934813 C276.126333,94.4934813 275.900285,94.2671774 275.900285,93.8148254 L275.900285,89.4920099 C275.900285,89.3015459 275.965565,89.1407779 276.096893,89.0097059 C276.227453,88.8788899 276.388221,88.8133539 276.579197,88.8133539 L288.725627,88.8133539 C288.916091,88.8133539 289.076859,88.7539619 289.207931,88.63441 C289.338491,88.515882 289.404283,88.361002 289.404283,88.170282 L289.404283,85.2050343 C289.404283,85.0145703 289.338491,84.8538023 289.207931,84.7227304 C289.076859,84.5919144 288.916091,84.5263784 288.725627,84.5263784 L280.080252,84.5263784 C279.508604,84.5263784 278.966653,84.4191144 278.454653,84.2048424 C277.942397,83.9903144 277.495677,83.6928425 277.115005,83.3114025 C276.733821,82.9307305 276.436349,82.4896426 276.221821,81.9896746 C276.007549,81.4894507 275.900285,80.9536428 275.900285,80.3819948 L275.900285,73.6658355 C275.900285,73.0941876 276.007549,72.5527476 276.221821,72.0402357 C276.436349,71.5284917 276.733821,71.0879158 277.115005,70.7185078 C277.495677,70.3496119 277.942397,70.0518839 278.454653,69.8255799 C278.966653,69.5992759 279.508604,69.486124 280.080252,69.486124 L293.548411,69.486124 C294.000507,69.486124 294.227323,69.7126839 294.227323,70.1647799 L294.227323,74.5590194 C294.227323,74.7497394 294.161275,74.9046194 294.030715,75.0231474 C293.899643,75.1426994 293.738875,75.2020914 293.548411,75.2020914 L282.152316,75.2020914 C281.96134,75.2020914 281.806716,75.2678833 281.687932,75.3984433 C281.56838,75.5297713 281.509244,75.6905393 281.509244,75.8807473 L281.509244,78.774571 C281.509244,78.965547 281.56838,79.1263149 281.687932,79.2568749 C281.806716,79.3879469 281.96134,79.4532269 282.152316,79.4532269 L290.833275,79.4532269 C291.404923,79.4532269 291.946363,79.5604909 292.458875,79.7747629" id="Fill-27" fill="#004E87" mask="url(#mask-2)"></path>
                <path d="M129.346521,26.2412517 L117.731802,26.2412517 C115.239898,26.2412517 113.219803,24.2211559 113.219803,21.7292521 L113.219803,4.53091793 C113.219803,2.03901419 115.239898,0.018918398 117.731802,0.018918398 L129.346521,0.018918398 C131.838425,0.018918398 133.85852,2.03901419 133.85852,4.53091793 L133.85852,21.7292521 C133.85852,24.2211559 131.838425,26.2412517 129.346521,26.2412517" id="Fill-28" fill="#004E87" mask="url(#mask-2)"></path>
                <path d="M142.223345,0.245247974 L142.223345,8.78924708 C142.223345,8.95283107 142.141425,9.03449506 141.978097,9.03449506 L140.197105,9.03449506 C140.033521,9.03449506 139.951857,8.95283107 139.951857,8.78924708 L139.951857,2.41356775 C139.951857,2.37926375 139.932401,2.36415975 139.893745,2.36825575 C139.855089,2.37286375 139.809777,2.39615975 139.758321,2.43916775 L139.125745,2.92966369 C139.074289,2.97292769 139.028977,2.98367969 138.990322,2.96191969 C138.951666,2.94067169 138.93221,2.8956157 138.93221,2.82649571 L138.93221,1.01964789 C138.93221,0.950783901 138.951666,0.879871908 138.990322,0.806655916 C139.028977,0.733695923 139.074289,0.67583993 139.125745,0.632575934 L139.758321,0.142079985 C139.809777,0.0993279896 139.878641,0.0647679932 139.964657,0.038655996 C140.050673,0.0130559986 140.127985,0 140.197105,0 L140.493809,0 L141.978097,0 C142.141425,0 142.223345,0.0816639915 142.223345,0.245247974" id="Fill-29" fill="#ED2E2E" mask="url(#mask-2)"></path>
                <path d="M146.159601,6.84006329 L148.676336,6.84006329 L148.676336,2.19417577 L146.159601,2.19417577 L146.159601,6.84006329 Z M149.360368,0 C149.56696,0 149.762544,0.0409599957 149.947632,0.122879987 C150.132464,0.204543979 150.291696,0.312063967 150.425072,0.445183954 C150.558448,0.57881594 150.665968,0.737791923 150.747888,0.922879904 C150.829552,1.10796788 150.870256,1.30380786 150.870256,1.51014384 L150.870256,7.52460722 C150.870256,7.73094319 150.829552,7.92678317 150.747888,8.11187115 C150.665968,8.29670313 150.558448,8.45823912 150.425072,8.5957111 C150.291696,8.73318309 150.132464,8.84070308 149.947632,8.91827107 C149.762544,8.99583906 149.56696,9.03449506 149.360368,9.03449506 L148.069617,9.03449506 L147.669489,9.03449506 L147.243761,9.03449506 L146.637041,9.03449506 L145.475569,9.03449506 C145.268977,9.03449506 145.073137,8.99583906 144.888305,8.91827107 C144.703217,8.84070308 144.541937,8.73318309 144.404465,8.5957111 C144.266481,8.45823912 144.159217,8.29670313 144.081649,8.11187115 C144.004337,7.92678317 143.965425,7.73094319 143.965425,7.52460722 L143.965425,1.51014384 C143.965425,1.30380786 144.004337,1.10796788 144.081649,0.922879904 C144.159217,0.737791923 144.266481,0.57881594 144.404465,0.445183954 C144.541937,0.312063967 144.703217,0.204543979 144.888305,0.122879987 C145.073137,0.0409599957 145.268977,0 145.475569,0 L146.637041,0 L147.243761,0 L147.669489,0 L148.069617,0 L149.360368,0 Z" id="Fill-30" fill="#ED2E2E" mask="url(#mask-2)"></path>
                <path d="M155.413334,0.245247974 L155.413334,8.78924708 C155.413334,8.95283107 155.331414,9.03449506 155.168086,9.03449506 L153.387094,9.03449506 C153.22351,9.03449506 153.141846,8.95283107 153.141846,8.78924708 L153.141846,2.41356775 C153.141846,2.37926375 153.12239,2.36415975 153.083734,2.36825575 C153.045078,2.37286375 152.999766,2.39615975 152.94831,2.43916775 L152.315735,2.92966369 C152.264279,2.97292769 152.218967,2.98367969 152.180311,2.96191969 C152.141655,2.94067169 152.122199,2.8956157 152.122199,2.82649571 L152.122199,1.01964789 C152.122199,0.950783901 152.141655,0.879871908 152.180311,0.806655916 C152.218967,0.733695923 152.264279,0.67583993 152.315735,0.632575934 L152.94831,0.142079985 C152.999766,0.0993279896 153.06863,0.0647679932 153.154646,0.038655996 C153.240662,0.0130559986 153.317974,0 153.387094,0 L153.683798,0 L155.168086,0 C155.331414,0 155.413334,0.0816639915 155.413334,0.245247974" id="Fill-31" fill="#ED2E2E" mask="url(#mask-2)"></path>
                <path d="M159.349487,6.84006329 L161.866223,6.84006329 L161.866223,2.19417577 L159.349487,2.19417577 L159.349487,6.84006329 Z M162.550255,0 C162.756847,0 162.952431,0.0409599957 163.137519,0.122879987 C163.322351,0.204543979 163.481583,0.312063967 163.615215,0.445183954 C163.748591,0.57881594 163.855855,0.737791923 163.937775,0.922879904 C164.019439,1.10796788 164.060399,1.30380786 164.060399,1.51014384 L164.060399,7.52460722 C164.060399,7.73094319 164.019439,7.92678317 163.937775,8.11187115 C163.855855,8.29670313 163.748591,8.45823912 163.615215,8.5957111 C163.481583,8.73318309 163.322351,8.84070308 163.137519,8.91827107 C162.952431,8.99583906 162.756847,9.03449506 162.550255,9.03449506 L161.259759,9.03449506 L160.859631,9.03449506 L160.433647,9.03449506 L159.827183,9.03449506 L158.665711,9.03449506 C158.459119,9.03449506 158.263279,8.99583906 158.078448,8.91827107 C157.893104,8.84070308 157.731824,8.73318309 157.594352,8.5957111 C157.456624,8.45823912 157.349104,8.29670313 157.271792,8.11187115 C157.194224,7.92678317 157.155568,7.73094319 157.155568,7.52460722 L157.155568,1.51014384 C157.155568,1.30380786 157.194224,1.10796788 157.271792,0.922879904 C157.349104,0.737791923 157.456624,0.57881594 157.594352,0.445183954 C157.731824,0.312063967 157.893104,0.204543979 158.078448,0.122879987 C158.263279,0.0409599957 158.459119,0 158.665711,0 L159.827183,0 L160.433647,0 L160.859631,0 L161.259759,0 L162.550255,0 Z" id="Fill-32" fill="#ED2E2E" mask="url(#mask-2)"></path>
                <path d="M168.603477,0.245247974 L168.603477,8.78924708 C168.603477,8.95283107 168.521557,9.03449506 168.358229,9.03449506 L166.577237,9.03449506 C166.413653,9.03449506 166.331989,8.95283107 166.331989,8.78924708 L166.331989,2.41356775 C166.331989,2.37926375 166.312533,2.36415975 166.273877,2.36825575 C166.235221,2.37286375 166.189909,2.39615975 166.138453,2.43916775 L165.505877,2.92966369 C165.454421,2.97292769 165.409109,2.98367969 165.370453,2.96191969 C165.331797,2.94067169 165.312341,2.8956157 165.312341,2.82649571 L165.312341,1.01964789 C165.312341,0.950783901 165.331797,0.879871908 165.370453,0.806655916 C165.409109,0.733695923 165.454421,0.67583993 165.505877,0.632575934 L166.138453,0.142079985 C166.189909,0.0993279896 166.258773,0.0647679932 166.344789,0.038655996 C166.430805,0.0130559986 166.508117,0 166.577237,0 L166.873941,0 L168.358229,0 C168.521557,0 168.603477,0.0816639915 168.603477,0.245247974" id="Fill-33" fill="#ED2E2E" mask="url(#mask-2)"></path>
                <path d="M172.53963,6.84006329 L175.056366,6.84006329 L175.056366,2.19417577 L172.53963,2.19417577 L172.53963,6.84006329 Z M175.740398,0 C175.94699,0 176.142574,0.0409599957 176.327662,0.122879987 C176.512494,0.204543979 176.671726,0.312063967 176.805102,0.445183954 C176.938478,0.57881594 177.045998,0.737791923 177.127918,0.922879904 C177.209582,1.10796788 177.250542,1.30380786 177.250542,1.51014384 L177.250542,7.52460722 C177.250542,7.73094319 177.209582,7.92678317 177.127918,8.11187115 C177.045998,8.29670313 176.938478,8.45823912 176.805102,8.5957111 C176.671726,8.73318309 176.512494,8.84070308 176.327662,8.91827107 C176.142574,8.99583906 175.94699,9.03449506 175.740398,9.03449506 L174.449902,9.03449506 L174.049774,9.03449506 L173.62379,9.03449506 L173.017326,9.03449506 L171.855598,9.03449506 C171.649262,9.03449506 171.453422,8.99583906 171.26859,8.91827107 C171.083246,8.84070308 170.921966,8.73318309 170.784494,8.5957111 C170.646766,8.45823912 170.539246,8.29670313 170.461934,8.11187115 C170.384366,7.92678317 170.34571,7.73094319 170.34571,7.52460722 L170.34571,1.51014384 C170.34571,1.30380786 170.384366,1.10796788 170.461934,0.922879904 C170.539246,0.737791923 170.646766,0.57881594 170.784494,0.445183954 C170.921966,0.312063967 171.083246,0.204543979 171.26859,0.122879987 C171.453422,0.0409599957 171.649262,0 171.855598,0 L173.017326,0 L173.62379,0 L174.049774,0 L174.449902,0 L175.740398,0 Z" id="Fill-34" fill="#ED2E2E" mask="url(#mask-2)"></path>
                <path d="M181.793466,0.245247974 L181.793466,8.78924708 C181.793466,8.95283107 181.711546,9.03449506 181.548218,9.03449506 L179.767226,9.03449506 C179.603642,9.03449506 179.521978,8.95283107 179.521978,8.78924708 L179.521978,2.41356775 C179.521978,2.37926375 179.502522,2.36415975 179.463866,2.36825575 C179.42521,2.37286375 179.379898,2.39615975 179.328442,2.43916775 L178.695866,2.92966369 C178.64441,2.97292769 178.599098,2.98367969 178.560442,2.96191969 C178.521786,2.94067169 178.50233,2.8956157 178.50233,2.82649571 L178.50233,1.01964789 C178.50233,0.950783901 178.521786,0.879871908 178.560442,0.806655916 C178.599098,0.733695923 178.64441,0.67583993 178.695866,0.632575934 L179.328442,0.142079985 C179.379898,0.0993279896 179.448762,0.0647679932 179.534778,0.038655996 C179.620794,0.0130559986 179.698106,0 179.767226,0 L180.06393,0 L181.548218,0 C181.711546,0 181.793466,0.0816639915 181.793466,0.245247974" id="Fill-35" fill="#ED2E2E" mask="url(#mask-2)"></path>
                <path d="M142.21971,17.426763 L142.21971,25.9707621 C142.21971,26.1346021 142.13779,26.2162661 141.974462,26.2162661 L140.19347,26.2162661 C140.029886,26.2162661 139.948222,26.1346021 139.948222,25.9707621 L139.948222,19.5953388 C139.948222,19.5607788 139.928766,19.5456748 139.89011,19.5500268 C139.851454,19.5543788 139.806142,19.5779308 139.754686,19.6209388 L139.12211,20.1111787 C139.070654,20.1546987 139.025342,20.1651947 138.986686,20.1436907 C138.94803,20.1221867 138.928574,20.0773867 138.928574,20.0082667 L138.928574,18.2011629 C138.928574,18.1325549 138.94803,18.0613869 138.986686,17.9881709 C139.025342,17.9152109 139.070654,17.8573549 139.12211,17.8143469 L139.754686,17.323851 C139.806142,17.280843 139.875006,17.246283 139.961022,17.220171 C140.047038,17.194827 140.12435,17.181771 140.19347,17.181771 L140.490174,17.181771 L141.974462,17.181771 C142.13779,17.181771 142.21971,17.263435 142.21971,17.426763" id="Fill-36" fill="#ED2E2E" mask="url(#mask-2)"></path>
                <path d="M146.156017,24.0220135 L148.672752,24.0220135 L148.672752,19.37587 L146.156017,19.37587 L146.156017,24.0220135 Z M149.356784,17.1816942 C149.56312,17.1816942 149.75896,17.2226542 149.944048,17.3043182 C150.12888,17.3862382 150.287856,17.4937582 150.421488,17.6271342 C150.554864,17.7605101 150.662384,17.9194861 150.744304,18.1045741 C150.825968,18.2896621 150.866672,18.4852461 150.866672,18.6918381 L150.866672,24.7063014 C150.866672,24.9126374 150.825968,25.1082214 150.744304,25.2933094 C150.662384,25.4783973 150.554864,25.6396773 150.421488,25.7771493 C150.287856,25.9151333 150.12888,26.0223973 149.944048,26.0999653 C149.75896,26.1772773 149.56312,26.2161893 149.356784,26.2161893 L148.066033,26.2161893 L147.665905,26.2161893 L147.240177,26.2161893 L146.633457,26.2161893 L145.471985,26.2161893 C145.265393,26.2161893 145.069553,26.1772773 144.884721,26.0999653 C144.699633,26.0223973 144.538097,25.9151333 144.400625,25.7771493 C144.262897,25.6396773 144.155377,25.4783973 144.078065,25.2933094 C144.000497,25.1082214 143.961841,24.9126374 143.961841,24.7063014 L143.961841,18.6918381 C143.961841,18.4852461 144.000497,18.2896621 144.078065,18.1045741 C144.155377,17.9194861 144.262897,17.7605101 144.400625,17.6271342 C144.538097,17.4937582 144.699633,17.3862382 144.884721,17.3043182 C145.069553,17.2226542 145.265393,17.1816942 145.471985,17.1816942 L146.633457,17.1816942 L147.240177,17.1816942 L147.665905,17.1816942 L148.066033,17.1816942 L149.356784,17.1816942 Z" id="Fill-37" fill="#ED2E2E" mask="url(#mask-2)"></path>
                <path d="M155.409725,17.426763 L155.409725,25.9707621 C155.409725,26.1346021 155.327805,26.2162661 155.164477,26.2162661 L153.383485,26.2162661 C153.219901,26.2162661 153.138237,26.1346021 153.138237,25.9707621 L153.138237,19.5953388 C153.138237,19.5607788 153.118781,19.5456748 153.080125,19.5500268 C153.041469,19.5543788 152.996157,19.5779308 152.944701,19.6209388 L152.312125,20.1111787 C152.260669,20.1546987 152.215357,20.1651947 152.176701,20.1436907 C152.138045,20.1221867 152.118589,20.0773867 152.118589,20.0082667 L152.118589,18.2011629 C152.118589,18.1325549 152.138045,18.0613869 152.176701,17.9881709 C152.215357,17.9152109 152.260669,17.8573549 152.312125,17.8143469 L152.944701,17.323851 C152.996157,17.280843 153.065021,17.246283 153.151037,17.220171 C153.237053,17.194827 153.314365,17.181771 153.383485,17.181771 L153.680189,17.181771 L155.164477,17.181771 C155.327805,17.181771 155.409725,17.263435 155.409725,17.426763" id="Fill-38" fill="#ED2E2E" mask="url(#mask-2)"></path>
                <path d="M159.345903,24.0220135 L161.862639,24.0220135 L161.862639,19.37587 L159.345903,19.37587 L159.345903,24.0220135 Z M162.546671,17.1816942 C162.753263,17.1816942 162.948847,17.2226542 163.133935,17.3043182 C163.318767,17.3862382 163.477999,17.4937582 163.611375,17.6271342 C163.744751,17.7605101 163.852271,17.9194861 163.934191,18.1045741 C164.015855,18.2896621 164.056815,18.4852461 164.056815,18.6918381 L164.056815,24.7063014 C164.056815,24.9126374 164.015855,25.1082214 163.934191,25.2933094 C163.852271,25.4783973 163.744751,25.6396773 163.611375,25.7771493 C163.477999,25.9151333 163.318767,26.0223973 163.133935,26.0999653 C162.948847,26.1772773 162.753263,26.2161893 162.546671,26.2161893 L161.256175,26.2161893 L160.856047,26.2161893 L160.430063,26.2161893 L159.823343,26.2161893 L158.661871,26.2161893 C158.455535,26.2161893 158.259695,26.1772773 158.074608,26.0999653 C157.88952,26.0223973 157.72824,25.9151333 157.590768,25.7771493 C157.45304,25.6396773 157.34552,25.4783973 157.268208,25.2933094 C157.19064,25.1082214 157.151728,24.9126374 157.151728,24.7063014 L157.151728,18.6918381 C157.151728,18.4852461 157.19064,18.2896621 157.268208,18.1045741 C157.34552,17.9194861 157.45304,17.7605101 157.590768,17.6271342 C157.72824,17.4937582 157.88952,17.3862382 158.074608,17.3043182 C158.259695,17.2226542 158.455535,17.1816942 158.661871,17.1816942 L159.823343,17.1816942 L160.430063,17.1816942 L160.856047,17.1816942 L161.256175,17.1816942 L162.546671,17.1816942 Z" id="Fill-39" fill="#ED2E2E" mask="url(#mask-2)"></path>
                <path d="M167.98027,24.0220135 L170.497006,24.0220135 L170.497006,19.37587 L167.98027,19.37587 L167.98027,24.0220135 Z M171.181038,17.1816942 C171.38763,17.1816942 171.583214,17.2226542 171.768302,17.3043182 C171.953134,17.3862382 172.112366,17.4937582 172.245742,17.6271342 C172.379118,17.7605101 172.486638,17.9194861 172.568558,18.1045741 C172.650222,18.2896621 172.691182,18.4852461 172.691182,18.6918381 L172.691182,24.7063014 C172.691182,24.9126374 172.650222,25.1082214 172.568558,25.2933094 C172.486638,25.4783973 172.379118,25.6396773 172.245742,25.7771493 C172.112366,25.9151333 171.953134,26.0223973 171.768302,26.0999653 C171.583214,26.1772773 171.38763,26.2161893 171.181038,26.2161893 L169.890542,26.2161893 L169.490414,26.2161893 L169.06443,26.2161893 L168.457966,26.2161893 L167.296239,26.2161893 C167.089903,26.2161893 166.894063,26.1772773 166.708975,26.0999653 C166.523887,26.0223973 166.362607,25.9151333 166.225135,25.7771493 C166.087407,25.6396773 165.979887,25.4783973 165.902575,25.2933094 C165.825007,25.1082214 165.786095,24.9126374 165.786095,24.7063014 L165.786095,18.6918381 C165.786095,18.4852461 165.825007,18.2896621 165.902575,18.1045741 C165.979887,17.9194861 166.087407,17.7605101 166.225135,17.6271342 C166.362607,17.4937582 166.523887,17.3862382 166.708975,17.3043182 C166.894063,17.2226542 167.089903,17.1816942 167.296239,17.1816942 L168.457966,17.1816942 L169.06443,17.1816942 L169.490414,17.1816942 L169.890542,17.1816942 L171.181038,17.1816942 Z" id="Fill-40" fill="#ED2E2E" mask="url(#mask-2)"></path>
                <path d="M177.234081,17.426763 L177.234081,25.9707621 C177.234081,26.1346021 177.152161,26.2162661 176.988833,26.2162661 L175.207841,26.2162661 C175.044257,26.2162661 174.962593,26.1346021 174.962593,25.9707621 L174.962593,19.5953388 C174.962593,19.5607788 174.943137,19.5456748 174.904481,19.5500268 C174.865825,19.5543788 174.820513,19.5779308 174.769057,19.6209388 L174.136481,20.1111787 C174.085025,20.1546987 174.039713,20.1651947 174.001057,20.1436907 C173.962401,20.1221867 173.942945,20.0773867 173.942945,20.0082667 L173.942945,18.2011629 C173.942945,18.1325549 173.962401,18.0613869 174.001057,17.9881709 C174.039713,17.9152109 174.085025,17.8573549 174.136481,17.8143469 L174.769057,17.323851 C174.820513,17.280843 174.889377,17.246283 174.975393,17.220171 C175.061409,17.194827 175.138721,17.181771 175.207841,17.181771 L175.504545,17.181771 L176.988833,17.181771 C177.152161,17.181771 177.234081,17.263435 177.234081,17.426763" id="Fill-41" fill="#ED2E2E" mask="url(#mask-2)"></path>
                <path d="M181.789831,17.426763 L181.789831,25.9707621 C181.789831,26.1346021 181.707911,26.2162661 181.544583,26.2162661 L179.763591,26.2162661 C179.600007,26.2162661 179.518343,26.1346021 179.518343,25.9707621 L179.518343,19.5953388 C179.518343,19.5607788 179.498887,19.5456748 179.460231,19.5500268 C179.421575,19.5543788 179.376263,19.5779308 179.324807,19.6209388 L178.692231,20.1111787 C178.640775,20.1546987 178.595463,20.1651947 178.556807,20.1436907 C178.518151,20.1221867 178.498695,20.0773867 178.498695,20.0082667 L178.498695,18.2011629 C178.498695,18.1325549 178.518151,18.0613869 178.556807,17.9881709 C178.595463,17.9152109 178.640775,17.8573549 178.692231,17.8143469 L179.324807,17.323851 C179.376263,17.280843 179.445127,17.246283 179.531143,17.220171 C179.617159,17.194827 179.694471,17.181771 179.763591,17.181771 L180.060295,17.181771 L181.544583,17.181771 C181.707911,17.181771 181.789831,17.263435 181.789831,17.426763" id="Fill-42" fill="#ED2E2E" mask="url(#mask-2)"></path>
                <path d="M115.429876,41.0557397 L117.946612,41.0557397 L117.946612,36.4098522 L115.429876,36.4098522 L115.429876,41.0557397 Z M118.630644,34.2154204 C118.83698,34.2154204 119.03282,34.2563804 119.217908,34.3383004 C119.40274,34.4199644 119.561716,34.5274844 119.695348,34.6608604 C119.828724,34.7942364 119.936243,34.9532124 120.018163,35.1383003 C120.099827,35.3233883 120.140531,35.5192283 120.140531,35.7258203 L120.140531,41.7400276 C120.140531,41.9466196 120.099827,42.1422036 120.018163,42.3272916 C119.936243,42.5123796 119.828724,42.6736595 119.695348,42.8111315 C119.561716,42.9488595 119.40274,43.0563795 119.217908,43.1336915 C119.03282,43.2112595 118.83698,43.2499155 118.630644,43.2499155 L117.339892,43.2499155 L116.939764,43.2499155 L116.514036,43.2499155 L115.907316,43.2499155 L114.745844,43.2499155 C114.539252,43.2499155 114.343412,43.2112595 114.15858,43.1336915 C113.973492,43.0563795 113.812212,42.9488595 113.674484,42.8111315 C113.536756,42.6736595 113.429236,42.5123796 113.351924,42.3272916 C113.274356,42.1422036 113.2357,41.9466196 113.2357,41.7400276 L113.2357,35.7258203 C113.2357,35.5192283 113.274356,35.3233883 113.351924,35.1383003 C113.429236,34.9532124 113.536756,34.7942364 113.674484,34.6608604 C113.812212,34.5274844 113.973492,34.4199644 114.15858,34.3383004 C114.343412,34.2563804 114.539252,34.2154204 114.745844,34.2154204 L115.907316,34.2154204 L116.514036,34.2154204 L116.939764,34.2154204 L117.339892,34.2154204 L118.630644,34.2154204 Z" id="Fill-43" fill="#ED2E2E" mask="url(#mask-2)"></path>
                <path d="M124.735219,34.4607452 L124.735219,43.0047443 C124.735219,43.1683283 124.653299,43.2499923 124.489971,43.2499923 L122.708979,43.2499923 C122.545395,43.2499923 122.463731,43.1683283 122.463731,43.0047443 L122.463731,36.629065 C122.463731,36.594761 122.444275,36.579657 122.405619,36.583753 C122.366963,36.588361 122.321651,36.611657 122.270195,36.654665 L121.637619,37.1451609 C121.586163,37.1884249 121.540851,37.1991769 121.502195,37.1774169 C121.463539,37.1561689 121.444083,37.1111129 121.444083,37.0419929 L121.444083,35.2351451 C121.444083,35.1662811 121.463539,35.0953691 121.502195,35.0221531 C121.540851,34.9491932 121.586163,34.8913372 121.637619,34.8480732 L122.270195,34.3575772 C122.321651,34.3148252 122.390515,34.2802652 122.476531,34.2541532 C122.562547,34.2285532 122.639859,34.2154972 122.708979,34.2154972 L123.005683,34.2154972 L124.489971,34.2154972 C124.653299,34.2154972 124.735219,34.2971612 124.735219,34.4607452" id="Fill-44" fill="#ED2E2E" mask="url(#mask-2)"></path>
                <path d="M128.723187,41.0557397 L131.239922,41.0557397 L131.239922,36.4098522 L128.723187,36.4098522 L128.723187,41.0557397 Z M131.923954,34.2154204 C132.13029,34.2154204 132.325874,34.2563804 132.511218,34.3383004 C132.69605,34.4199644 132.855026,34.5274844 132.988658,34.6608604 C133.122034,34.7942364 133.229554,34.9532124 133.311218,35.1383003 C133.392882,35.3233883 133.433842,35.5192283 133.433842,35.7258203 L133.433842,41.7400276 C133.433842,41.9466196 133.392882,42.1422036 133.311218,42.3272916 C133.229554,42.5123796 133.122034,42.6736595 132.988658,42.8111315 C132.855026,42.9488595 132.69605,43.0563795 132.511218,43.1336915 C132.325874,43.2112595 132.13029,43.2499155 131.923954,43.2499155 L130.633202,43.2499155 L130.233074,43.2499155 L129.80709,43.2499155 L129.200627,43.2499155 L128.039155,43.2499155 C127.832563,43.2499155 127.636723,43.2112595 127.451891,43.1336915 C127.266803,43.0563795 127.105267,42.9488595 126.967795,42.8111315 C126.830067,42.6736595 126.722547,42.5123796 126.645235,42.3272916 C126.567667,42.1422036 126.529011,41.9466196 126.529011,41.7400276 L126.529011,35.7258203 C126.529011,35.5192283 126.567667,35.3233883 126.645235,35.1383003 C126.722547,34.9532124 126.830067,34.7942364 126.967795,34.6608604 C127.105267,34.5274844 127.266803,34.4199644 127.451891,34.3383004 C127.636723,34.2563804 127.832563,34.2154204 128.039155,34.2154204 L129.200627,34.2154204 L129.80709,34.2154204 L130.233074,34.2154204 L130.633202,34.2154204 L131.923954,34.2154204 Z" id="Fill-45" fill="#ED2E2E" mask="url(#mask-2)"></path>
                <path d="M137.40901,41.0557397 L139.925745,41.0557397 L139.925745,36.4098522 L137.40901,36.4098522 L137.40901,41.0557397 Z M140.609777,34.2154204 C140.816369,34.2154204 141.011953,34.2563804 141.197041,34.3383004 C141.381873,34.4199644 141.541105,34.5274844 141.674481,34.6608604 C141.807857,34.7942364 141.915377,34.9532124 141.997297,35.1383003 C142.078961,35.3233883 142.119921,35.5192283 142.119921,35.7258203 L142.119921,41.7400276 C142.119921,41.9466196 142.078961,42.1422036 141.997297,42.3272916 C141.915377,42.5123796 141.807857,42.6736595 141.674481,42.8111315 C141.541105,42.9488595 141.381873,43.0563795 141.197041,43.1336915 C141.011953,43.2112595 140.816369,43.2499155 140.609777,43.2499155 L139.319281,43.2499155 L138.919154,43.2499155 L138.49317,43.2499155 L137.886706,43.2499155 L136.724978,43.2499155 C136.518642,43.2499155 136.322802,43.2112595 136.13797,43.1336915 C135.952626,43.0563795 135.791346,42.9488595 135.653874,42.8111315 C135.516146,42.6736595 135.408626,42.5123796 135.331314,42.3272916 C135.253746,42.1422036 135.21509,41.9466196 135.21509,41.7400276 L135.21509,35.7258203 C135.21509,35.5192283 135.253746,35.3233883 135.331314,35.1383003 C135.408626,34.9532124 135.516146,34.7942364 135.653874,34.6608604 C135.791346,34.5274844 135.952626,34.4199644 136.13797,34.3383004 C136.322802,34.2563804 136.518642,34.2154204 136.724978,34.2154204 L137.886706,34.2154204 L138.49317,34.2154204 L138.919154,34.2154204 L139.319281,34.2154204 L140.609777,34.2154204 Z" id="Fill-46" fill="#ED2E2E" mask="url(#mask-2)"></path>
                <path d="M146.095089,41.0557397 L148.611824,41.0557397 L148.611824,36.4098522 L146.095089,36.4098522 L146.095089,41.0557397 Z M149.2956,34.2154204 C149.502192,34.2154204 149.697776,34.2563804 149.882864,34.3383004 C150.067952,34.4199644 150.226928,34.5274844 150.36056,34.6608604 C150.493936,34.7942364 150.601456,34.9532124 150.68312,35.1383003 C150.764784,35.3233883 150.805744,35.5192283 150.805744,35.7258203 L150.805744,41.7400276 C150.805744,41.9466196 150.764784,42.1422036 150.68312,42.3272916 C150.601456,42.5123796 150.493936,42.6736595 150.36056,42.8111315 C150.226928,42.9488595 150.067952,43.0563795 149.882864,43.1336915 C149.697776,43.2112595 149.502192,43.2499155 149.2956,43.2499155 L148.005105,43.2499155 L147.604977,43.2499155 L147.178993,43.2499155 L146.572529,43.2499155 L145.411057,43.2499155 C145.204465,43.2499155 145.008625,43.2112595 144.823793,43.1336915 C144.638705,43.0563795 144.477169,42.9488595 144.339697,42.8111315 C144.201969,42.6736595 144.094449,42.5123796 144.017137,42.3272916 C143.939569,42.1422036 143.900913,41.9466196 143.900913,41.7400276 L143.900913,35.7258203 C143.900913,35.5192283 143.939569,35.3233883 144.017137,35.1383003 C144.094449,34.9532124 144.201969,34.7942364 144.339697,34.6608604 C144.477169,34.5274844 144.638705,34.4199644 144.823793,34.3383004 C145.008625,34.2563804 145.204465,34.2154204 145.411057,34.2154204 L146.572529,34.2154204 L147.178993,34.2154204 L147.604977,34.2154204 L148.005105,34.2154204 L149.2956,34.2154204 Z" id="Fill-47" fill="#ED2E2E" mask="url(#mask-2)"></path>
                <path d="M154.780912,41.0557397 L157.297648,41.0557397 L157.297648,36.4098522 L154.780912,36.4098522 L154.780912,41.0557397 Z M157.98168,34.2154204 C158.188015,34.2154204 158.383599,34.2563804 158.568943,34.3383004 C158.753775,34.4199644 158.912751,34.5274844 159.046383,34.6608604 C159.179759,34.7942364 159.287279,34.9532124 159.369199,35.1383003 C159.450607,35.3233883 159.491567,35.5192283 159.491567,35.7258203 L159.491567,41.7400276 C159.491567,41.9466196 159.450607,42.1422036 159.369199,42.3272916 C159.287279,42.5123796 159.179759,42.6736595 159.046383,42.8111315 C158.912751,42.9488595 158.753775,43.0563795 158.568943,43.1336915 C158.383599,43.2112595 158.188015,43.2499155 157.98168,43.2499155 L156.690928,43.2499155 L156.2908,43.2499155 L155.865072,43.2499155 L155.258352,43.2499155 L154.09688,43.2499155 C153.890288,43.2499155 153.694448,43.2112595 153.509616,43.1336915 C153.324528,43.0563795 153.162992,42.9488595 153.02552,42.8111315 C152.887792,42.6736595 152.780272,42.5123796 152.70296,42.3272916 C152.625392,42.1422036 152.586736,41.9466196 152.586736,41.7400276 L152.586736,35.7258203 C152.586736,35.5192283 152.625392,35.3233883 152.70296,35.1383003 C152.780272,34.9532124 152.887792,34.7942364 153.02552,34.6608604 C153.162992,34.5274844 153.324528,34.4199644 153.509616,34.3383004 C153.694448,34.2563804 153.890288,34.2154204 154.09688,34.2154204 L155.258352,34.2154204 L155.865072,34.2154204 L156.2908,34.2154204 L156.690928,34.2154204 L157.98168,34.2154204 Z" id="Fill-48" fill="#ED2E2E" mask="url(#mask-2)"></path>
                <path d="M163.466735,41.0557397 L165.983471,41.0557397 L165.983471,36.4098522 L163.466735,36.4098522 L163.466735,41.0557397 Z M166.667503,34.2154204 C166.874095,34.2154204 167.069679,34.2563804 167.254767,34.3383004 C167.439599,34.4199644 167.598831,34.5274844 167.732463,34.6608604 C167.865838,34.7942364 167.973102,34.9532124 168.055022,35.1383003 C168.136686,35.3233883 168.177646,35.5192283 168.177646,35.7258203 L168.177646,41.7400276 C168.177646,41.9466196 168.136686,42.1422036 168.055022,42.3272916 C167.973102,42.5123796 167.865838,42.6736595 167.732463,42.8111315 C167.598831,42.9488595 167.439599,43.0563795 167.254767,43.1336915 C167.069679,43.2112595 166.874095,43.2499155 166.667503,43.2499155 L165.377007,43.2499155 L164.976879,43.2499155 L164.550895,43.2499155 L163.944431,43.2499155 L162.782959,43.2499155 C162.576367,43.2499155 162.380527,43.2112595 162.195695,43.1336915 C162.010351,43.0563795 161.849071,42.9488595 161.711599,42.8111315 C161.573871,42.6736595 161.466351,42.5123796 161.389039,42.3272916 C161.311471,42.1422036 161.272815,41.9466196 161.272815,41.7400276 L161.272815,35.7258203 C161.272815,35.5192283 161.311471,35.3233883 161.389039,35.1383003 C161.466351,34.9532124 161.573871,34.7942364 161.711599,34.6608604 C161.849071,34.5274844 162.010351,34.4199644 162.195695,34.3383004 C162.380527,34.2563804 162.576367,34.2154204 162.782959,34.2154204 L163.944431,34.2154204 L164.550895,34.2154204 L164.976879,34.2154204 L165.377007,34.2154204 L166.667503,34.2154204 Z" id="Fill-49" fill="#ED2E2E" mask="url(#mask-2)"></path>
                <path d="M172.772206,34.4607452 L172.772206,43.0047443 C172.772206,43.1683283 172.690286,43.2499923 172.526958,43.2499923 L170.745966,43.2499923 C170.582382,43.2499923 170.500718,43.1683283 170.500718,43.0047443 L170.500718,36.629065 C170.500718,36.594761 170.481262,36.579657 170.442606,36.583753 C170.40395,36.588361 170.358638,36.611657 170.307182,36.654665 L169.674606,37.1451609 C169.62315,37.1884249 169.577838,37.1991769 169.539182,37.1774169 C169.500526,37.1561689 169.48107,37.1111129 169.48107,37.0419929 L169.48107,35.2351451 C169.48107,35.1662811 169.500526,35.0953691 169.539182,35.0221531 C169.577838,34.9491932 169.62315,34.8913372 169.674606,34.8480732 L170.307182,34.3575772 C170.358638,34.3148252 170.427502,34.2802652 170.513518,34.2541532 C170.599534,34.2285532 170.676846,34.2154972 170.745966,34.2154972 L171.04267,34.2154972 L172.526958,34.2154972 C172.690286,34.2154972 172.772206,34.2971612 172.772206,34.4607452" id="Fill-50" fill="#ED2E2E" mask="url(#mask-2)"></path>
                <path d="M176.760046,41.0557397 L179.276781,41.0557397 L179.276781,36.4098522 L176.760046,36.4098522 L176.760046,41.0557397 Z M179.960813,34.2154204 C180.167405,34.2154204 180.362989,34.2563804 180.548077,34.3383004 C180.732909,34.4199644 180.892141,34.5274844 181.025517,34.6608604 C181.158893,34.7942364 181.266413,34.9532124 181.348333,35.1383003 C181.429997,35.3233883 181.470957,35.5192283 181.470957,35.7258203 L181.470957,41.7400276 C181.470957,41.9466196 181.429997,42.1422036 181.348333,42.3272916 C181.266413,42.5123796 181.158893,42.6736595 181.025517,42.8111315 C180.892141,42.9488595 180.732909,43.0563795 180.548077,43.1336915 C180.362989,43.2112595 180.167405,43.2499155 179.960813,43.2499155 L178.670317,43.2499155 L178.270189,43.2499155 L177.844205,43.2499155 L177.237486,43.2499155 L176.076014,43.2499155 C175.869678,43.2499155 175.673838,43.2112595 175.48875,43.1336915 C175.303662,43.0563795 175.142382,42.9488595 175.00491,42.8111315 C174.867182,42.6736595 174.759662,42.5123796 174.682094,42.3272916 C174.604782,42.1422036 174.56587,41.9466196 174.56587,41.7400276 L174.56587,35.7258203 C174.56587,35.5192283 174.604782,35.3233883 174.682094,35.1383003 C174.759662,34.9532124 174.867182,34.7942364 175.00491,34.6608604 C175.142382,34.5274844 175.303662,34.4199644 175.48875,34.3383004 C175.673838,34.2563804 175.869678,34.2154204 176.076014,34.2154204 L177.237486,34.2154204 L177.844205,34.2154204 L178.270189,34.2154204 L178.670317,34.2154204 L179.960813,34.2154204 Z" id="Fill-51" fill="#ED2E2E" mask="url(#mask-2)"></path>
                <polygon id="Fill-52" fill="#FFFFFF" mask="url(#mask-2)" points="123.539187 6.44426173 125.711603 10.8459253 130.569202 11.5517172 127.054067 14.9780208 127.884019 19.8159083 123.539187 17.5318766 119.194356 19.8159083 120.024307 14.9780208 116.509172 11.5517172 121.366771 10.8459253"></polygon>
            </g>
        </g>
    </g>
</svg>